<?xml version="1.0" encoding="UTF-8"?>
<svg width="120px" height="30px" viewBox="0 0 120 30" version="1.1" xmlns="http://www.w3.org/2000/svg" xmlns:xlink="http://www.w3.org/1999/xlink">
    <!-- Generator: Sketch 40.2 (33826) - http://www.bohemiancoding.com/sketch -->
    <title>Combined Shape</title>
    <desc>Created with Sketch.</desc>
    <defs></defs>
    <g id="mainActions" stroke="none" stroke-width="1" fill="none" fill-rule="evenodd">
        <g id="dashboardTable02Actions02" transform="translate(-105.000000, -83.000000)" fill="#FFFFFF">
            <g id="Search" transform="translate(0.000000, 60.000000)">
                <path d="M122.727273,47.5454545 C126.492818,47.5454545 129.545455,44.4928182 129.545455,40.7272727 C129.545455,36.9617273 126.492818,33.9090909 122.727273,33.9090909 L117.272727,33.9090909 C116.519727,33.9090909 115.909091,34.5197273 115.909091,35.2727273 C115.909091,36.0257273 116.519727,36.6363636 117.272727,36.6363636 L122.727273,36.6363636 C124.986545,36.6363636 126.818182,38.468 126.818182,40.7272727 C126.818182,42.9865455 124.986545,44.8181818 122.727273,44.8181818 L117.272727,44.8181818 C112.000909,44.8181818 107.727273,40.5445455 107.727273,35.2727273 C107.727273,30.0009091 112.000909,25.7272727 117.272727,25.7272727 L122.727273,25.7272727 C123.480273,25.7272727 124.090909,25.1166364 124.090909,24.3636364 C124.090909,23.6106364 123.480273,23 122.727273,23 L117.272727,23 C110.494636,23 105,28.4946364 105,35.2727273 C105,42.0508182 110.494636,47.5454545 117.272727,47.5454545 L122.727273,47.5454545 Z M122.727273,28.4545455 L117.272727,28.4545455 C113.507182,28.4545455 110.454545,31.5071818 110.454545,35.2727273 C110.454545,39.0382727 113.507182,42.0909091 117.272727,42.0909091 L122.727273,42.0909091 C123.480273,42.0909091 124.090909,41.4802727 124.090909,40.7272727 C124.090909,39.9742727 123.480273,39.3636364 122.727273,39.3636364 L117.272727,39.3636364 C115.013455,39.3636364 113.181818,37.532 113.181818,35.2727273 C113.181818,33.0134545 115.013455,31.1818182 117.272727,31.1818182 L122.727273,31.1818182 C127.999091,31.1818182 132.272727,35.4554545 132.272727,40.7272727 C132.272727,45.9990909 127.999091,50.2727273 122.727273,50.2727273 L117.272727,50.2727273 C116.519727,50.2727273 115.909091,50.8833636 115.909091,51.6363636 C115.909091,52.3893636 116.519727,53 117.272727,53 L122.727273,53 C129.505364,53 135,47.5053636 135,40.7272727 C135,33.9491818 129.505364,28.4545455 122.727273,28.4545455 Z M140.454545,38.0226636 L140.454545,38.0000273 C140.454545,35.7511182 142.149818,33.9091182 144.579545,33.9091182 C145.765909,33.9091182 146.568273,34.2254818 147.223909,34.7114818 C147.404727,34.8470273 147.562909,35.0957545 147.562909,35.4006636 C147.562909,35.8754818 147.178636,36.2483 146.704091,36.2483 C146.466545,36.2483 146.308364,36.1580273 146.184273,36.0789364 C145.698273,35.7173 145.189636,35.5138455 144.568091,35.5138455 C143.234727,35.5138455 142.274182,36.6213909 142.274182,37.9773909 L142.274182,38.0000273 C142.274182,39.3560273 143.212091,40.4862091 144.568091,40.4862091 C145.302818,40.4862091 145.788545,40.2601182 146.286,39.8646636 C146.421545,39.7517545 146.602364,39.6723909 146.805818,39.6723909 C147.246545,39.6723909 147.619364,40.0340273 147.619364,40.4747545 C147.619364,40.7461182 147.483818,40.9607545 147.325636,41.0965727 C146.613545,41.7181182 145.777364,42.0909364 144.511636,42.0909364 C142.183636,42.0909364 140.454545,40.2939364 140.454545,38.0226636 Z M149.417973,34.8471091 C149.417973,34.3611091 149.802245,33.9768364 150.287973,33.9768364 C150.773973,33.9768364 151.158245,34.3611091 151.158245,34.8471091 L151.158245,40.3733818 L154.379155,40.3733818 C154.819882,40.3733818 155.170064,40.7235636 155.170064,41.1642909 C155.170064,41.6050182 154.819882,41.9554727 154.379155,41.9554727 L150.287973,41.9554727 C149.802245,41.9554727 149.417973,41.5712 149.417973,41.0852 L149.417973,34.8471091 Z M156.413455,41.0852 L156.413455,34.9147455 C156.413455,34.4290182 156.797727,34.0447455 157.283455,34.0447455 L161.668364,34.0447455 C162.097909,34.0447455 162.448091,34.3949273 162.448091,34.8244727 C162.448091,35.2537455 162.097909,35.5930182 161.668364,35.5930182 L158.142545,35.5930182 L158.142545,37.1977455 L161.16,37.1977455 C161.589273,37.1977455 161.939727,37.5479273 161.939727,37.9774727 C161.939727,38.4067455 161.589273,38.7460182 161.16,38.7460182 L158.142545,38.7460182 L158.142545,40.4072 L161.724818,40.4072 C162.154364,40.4072 162.504818,40.7573818 162.504818,41.1869273 C162.504818,41.6162 162.154364,41.9554727 161.724818,41.9554727 L157.283455,41.9554727 C156.797727,41.9554727 156.413455,41.5712 156.413455,41.0852 Z M163.817373,40.8363909 L166.574645,34.6097545 C166.766918,34.1802091 167.1171,33.9203 167.591918,33.9203 L167.693645,33.9203 C168.168191,33.9203 168.507191,34.1802091 168.699464,34.6097545 L171.456736,40.8363909 C171.513464,40.9607545 171.547282,41.0739364 171.547282,41.1868455 C171.547282,41.6502091 171.185645,42.0230273 170.722282,42.0230273 C170.315373,42.0230273 170.044282,41.7857545 169.8861,41.4241182 L169.354827,40.1810273 L165.874009,40.1810273 L165.320373,41.4805727 C165.173373,41.8198455 164.879645,42.0230273 164.518009,42.0230273 C164.065827,42.0230273 163.715645,41.6613909 163.715645,41.2094818 C163.715645,41.0851182 163.760918,40.9607545 163.817373,40.8363909 Z M168.710645,38.6442091 L167.614555,36.0336636 L166.518191,38.6442091 L168.710645,38.6442091 Z M172.914791,34.9148273 C172.914791,34.4288273 173.299064,34.0448273 173.784791,34.0448273 L176.531155,34.0448273 C177.536973,34.0448273 178.3167,34.3271 178.836518,34.8471909 C179.277245,35.2879182 179.514518,35.9094636 179.514518,36.6553727 L179.514518,36.6777364 C179.514518,37.9208273 178.892973,38.6893727 177.932427,39.0848273 L179.1417,40.5540091 C179.311064,40.7686455 179.424245,40.9494636 179.424245,41.2208273 C179.424245,41.7068273 179.017336,42.0231909 178.599245,42.0231909 C178.203791,42.0231909 177.943609,41.8309182 177.740427,41.5710091 L176.045155,39.4238273 L174.655064,39.4238273 L174.655064,41.1529182 C174.655064,41.6389182 174.270791,42.0231909 173.784791,42.0231909 C173.299064,42.0231909 172.914791,41.6389182 172.914791,41.1529182 L172.914791,34.9148273 Z M176.417973,37.8870091 C177.265609,37.8870091 177.751609,37.4351 177.751609,36.7682818 L177.751609,36.7456455 C177.751609,35.9997364 177.231791,35.6154636 176.384155,35.6154636 L174.655064,35.6154636 L174.655064,37.8870091 L176.417973,37.8870091 Z M181.472945,41.1190455 C181.280673,40.9835 181.145127,40.7347727 181.145127,40.4636818 C181.145127,40.0115 181.506764,39.6613182 181.958673,39.6613182 C182.184764,39.6613182 182.342945,39.7404091 182.456127,39.8195 C183.055036,40.2602273 183.7104,40.5313182 184.478945,40.5313182 C185.191036,40.5313182 185.620309,40.2490455 185.620309,39.7856818 L185.620309,39.7630455 C185.620309,39.3223182 185.349218,39.0962273 184.026764,38.7572273 C182.433491,38.3503182 181.405036,37.9095909 181.405036,36.3386818 L181.405036,36.3160455 C181.405036,34.8809545 182.557855,33.9315909 184.173764,33.9315909 C185.134309,33.9315909 185.970764,34.1803182 186.682582,34.6322273 C186.874855,34.7454091 187.066855,34.9826818 187.066855,35.3216818 C187.066855,35.7735909 186.705218,36.1240455 186.253309,36.1240455 C186.083673,36.1240455 185.948127,36.0787727 185.812582,35.9996818 C185.236036,35.6606818 184.693582,35.4686818 184.151127,35.4686818 C183.484582,35.4686818 183.134127,35.7735909 183.134127,36.1578636 L183.134127,36.1805 C183.134127,36.7003182 183.473127,36.8699545 184.840582,37.2201364 C186.445309,37.6385 187.3494,38.2147727 187.3494,39.5934091 L187.3494,39.6160455 C187.3494,41.1869545 186.151582,42.0684091 184.445127,42.0684091 C183.405218,42.0684091 182.3544,41.7517727 181.472945,41.1190455 Z M189.136636,41.0852 L189.136636,34.9147455 C189.136636,34.4290182 189.520909,34.0447455 190.006636,34.0447455 L194.391545,34.0447455 C194.821091,34.0447455 195.171273,34.3949273 195.171273,34.8244727 C195.171273,35.2537455 194.821091,35.5930182 194.391545,35.5930182 L190.865727,35.5930182 L190.865727,37.1977455 L193.882909,37.1977455 C194.312455,37.1977455 194.662909,37.5479273 194.662909,37.9774727 C194.662909,38.4067455 194.312455,38.7460182 193.882909,38.7460182 L190.865727,38.7460182 L190.865727,40.4072 L194.448,40.4072 C194.877545,40.4072 195.228,40.7573818 195.228,41.1869273 C195.228,41.6162 194.877545,41.9554727 194.448,41.9554727 L190.006636,41.9554727 C189.520909,41.9554727 189.136636,41.5712 189.136636,41.0852 Z M198.823309,35.6494455 L197.150673,35.6494455 C196.709945,35.6494455 196.348309,35.2878091 196.348309,34.8470818 C196.348309,34.4063545 196.709945,34.0447182 197.150673,34.0447182 L202.236218,34.0447182 C202.676945,34.0447182 203.038582,34.4063545 203.038582,34.8470818 C203.038582,35.2878091 202.676945,35.6494455 202.236218,35.6494455 L200.563582,35.6494455 L200.563582,41.1530818 C200.563582,41.6390818 200.179582,42.0230818 199.693582,42.0230818 C199.207582,42.0230818 198.823309,41.6390818 198.823309,41.1530818 L198.823309,35.6494455 Z M206.419309,35.6494455 L204.746673,35.6494455 C204.305945,35.6494455 203.944309,35.2878091 203.944309,34.8470818 C203.944309,34.4063545 204.305945,34.0447182 204.746673,34.0447182 L209.832218,34.0447182 C210.272945,34.0447182 210.634582,34.4063545 210.634582,34.8470818 C210.634582,35.2878091 210.272945,35.6494455 209.832218,35.6494455 L208.159582,35.6494455 L208.159582,41.1530818 C208.159582,41.6390818 207.775582,42.0230818 207.289582,42.0230818 C206.803582,42.0230818 206.419309,41.6390818 206.419309,41.1530818 L206.419309,35.6494455 Z M211.900391,34.8471091 C211.900391,34.3611091 212.284664,33.9768364 212.770391,33.9768364 C213.256391,33.9768364 213.640664,34.3611091 213.640664,34.8471091 L213.640664,40.3733818 L216.861573,40.3733818 C217.3023,40.3733818 217.652482,40.7235636 217.652482,41.1642909 C217.652482,41.6050182 217.3023,41.9554727 216.861573,41.9554727 L212.770391,41.9554727 C212.284664,41.9554727 211.900391,41.5712 211.900391,41.0852 L211.900391,34.8471091 Z M218.908773,41.0852 L218.908773,34.9147455 C218.908773,34.4290182 219.293045,34.0447455 219.778773,34.0447455 L224.163682,34.0447455 C224.593227,34.0447455 224.943409,34.3949273 224.943409,34.8244727 C224.943409,35.2537455 224.593227,35.5930182 224.163682,35.5930182 L220.637864,35.5930182 L220.637864,37.1977455 L223.655318,37.1977455 C224.084591,37.1977455 224.435045,37.5479273 224.435045,37.9774727 C224.435045,38.4067455 224.084591,38.7460182 223.655318,38.7460182 L220.637864,38.7460182 L220.637864,40.4072 L224.220136,40.4072 C224.649682,40.4072 225.000136,40.7573818 225.000136,41.1869273 C225.000136,41.6162 224.649682,41.9554727 224.220136,41.9554727 L219.778773,41.9554727 C219.293045,41.9554727 218.908773,41.5712 218.908773,41.0852 Z" id="Combined-Shape"></path>
            </g>
        </g>
    </g>
</svg>